<?xml version="1.0" encoding="UTF-8" standalone="no"?>
<!-- Created with Inkscape (http://www.inkscape.org/) -->
<svg xmlns:dc="http://purl.org/dc/elements/1.1/" xmlns:cc="http://creativecommons.org/ns#" xmlns:rdf="http://www.w3.org/1999/02/22-rdf-syntax-ns#" xmlns:svg="http://www.w3.org/2000/svg" xmlns="http://www.w3.org/2000/svg" xmlns:sodipodi="http://sodipodi.sourceforge.net/DTD/sodipodi-0.dtd" xmlns:inkscape="http://www.inkscape.org/namespaces/inkscape" version="1.1" id="svg24" width="380.22617" height="400.79596" viewBox="0 0 380.22616 400.79596" sodipodi:docname="logo_bk_white.svg" inkscape:version="0.92.4 (5da689c313, 2019-01-14)">
  <metadata id="metadata30">
    <rdf:RDF>
      <cc:Work rdf:about="">
        <dc:format>image/svg+xml</dc:format>
        <dc:type rdf:resource="http://purl.org/dc/dcmitype/StillImage"/>
        <dc:title/>
      </cc:Work>
    </rdf:RDF>
  </metadata>
  <defs id="defs28"/>
  <sodipodi:namedview pagecolor="#ffffff" bordercolor="#666666" borderopacity="1" objecttolerance="10" gridtolerance="10" guidetolerance="10" inkscape:pageopacity="0" inkscape:pageshadow="2" inkscape:window-width="1920" inkscape:window-height="1017" id="namedview26" showgrid="false" inkscape:zoom="1.1400463" inkscape:cx="190.20165" inkscape:cy="216.05346" inkscape:window-x="-8" inkscape:window-y="-8" inkscape:window-maximized="1" inkscape:current-layer="svg24"/>
  <path inkscape:connector-curvature="0" id="path36" d="M 0.26372,227.67559 C 0.5589,33.8955 -0.0975,51.33395 7.48482,35.83522 12.6387,25.30036 24.51629,13.58256 35.55558,8.1421 50.14058,0.95423 38.93085,1.41171 218.69088,0.66816 L 380.22617,0 l -0.25529,173.67761 -0.25529,173.67762 -2.2449,6.72 c -5.65578,16.93023 -18.15313,31.63987 -32.89967,38.72354 -14.61694,7.02142 -4.43576,6.61407 -183.51322,7.34227 L 0,400.79596 Z m 127.8668,118.25628 c 23.24428,-5.94489 40.61655,-23.2163 46.78333,-46.51172 1.5698,-5.93004 1.76173,-10.87173 1.76173,-45.36 v -38.70492 h -14.84035 -14.84035 l -0.27965,40.08 -0.27965,40.08 -2.66858,5.43411 c -3.0731,6.25782 -8.60456,11.64896 -14.97391,14.59405 -4.02326,1.86029 -6.39305,2.08057 -25.38532,2.35965 l -20.94781,0.30781 0.30781,-20.94781 c 0.27908,-18.99227 0.49936,-21.36206 2.35965,-25.38532 4.45627,-9.63761 13.88472,-16.5822 24.16633,-17.79991 l 4.98183,-0.59002 V 238.6175 223.74723 l -5.90924,0.66855 c -23.20713,2.62559 -44.4414,20.20813 -52.82372,43.73945 -2.15286,6.04362 -2.23208,7.39562 -2.51732,42.96 l -0.29452,36.72 h 33.97884 c 30.73743,0 34.68877,-0.18158 41.4209,-1.90336 z m 199.97906,-32.89664 c -0.51215,-38.99377 -0.70514,-40.38097 -7.56773,-54.3968 -4.96846,-10.14735 -15.32886,-21.01991 -25.29413,-26.54454 -7.52497,-4.17177 -19.91901,-8.09866 -25.5609,-8.09866 h -3.73123 v 14.75632 14.75632 l 4.91258,0.65168 c 10.19912,1.35296 19.26839,7.94178 23.88942,17.35568 2.24268,4.56874 2.37273,5.80999 2.69928,25.76355 l 0.34309,20.96357 -20.50625,-0.32356 -20.50624,-0.32356 -6.42177,-3.16334 c -6.84527,-3.37194 -10.83785,-7.40994 -14.40335,-14.56719 -2.12937,-4.27441 -2.17175,-5.04112 -2.45547,-44.42947 l -0.28871,-40.08 h -14.83129 -14.83129 v 39.13929 c 0,36.63593 0.12715,39.59814 1.98797,46.31317 4.96267,17.90839 17.26258,32.64054 34.07584,40.81414 11.82792,5.75002 14.40308,6.04491 53.56172,6.13342 l 35.38552,0.08 z m -151.62625,-164.64001 -0.28775,-41.04 -2.57204,-7.04121 C 169.90725,90.1403 165.59022,83.37433 157.92336,75.70745 150.25648,68.04058 143.49051,63.72356 133.3168,60.00726 l -7.04122,-2.57204 -36.76291,-0.29259 -36.76291,-0.29258 0.298,36.77258 c 0.28345,34.97682 0.4015,37.07732 2.41749,43.01259 7.8906,23.23068 29.56119,41.09884 53.07069,43.75864 l 5.73964,0.64936 V 166.1629 151.28258 L 109.363,150.6309 c -10.16525,-1.34846 -19.97934,-8.50388 -24.20418,-17.64717 -1.89891,-4.10959 -2.11047,-6.362 -2.39105,-25.45632 l -0.30781,-20.94781 20.94781,0.30781 c 20.73052,0.30462 21.00482,0.33581 26.44309,3.00633 6.1165,3.00357 11.45918,8.53674 14.54297,15.06148 1.9646,4.15676 2.05266,5.83462 2.33046,44.4 l 0.28871,40.08 h 14.87904 14.87904 z m 57.03261,0.96 c 0.26934,-38.60316 0.35525,-40.2435 2.33148,-44.5175 2.94509,-6.36935 8.33623,-11.90081 14.59405,-14.97391 5.36089,-2.63263 5.7155,-2.67272 26.31412,-2.97571 l 20.88,-0.30712 v 19.71111 c 0,17.46831 -0.22211,20.30474 -1.95202,24.92833 -3.87868,10.36671 -13.82123,18.19833 -24.74615,19.49222 l -4.98183,0.59002 v 14.74628 14.74628 h 2.72643 c 4.86076,0 17.04956,-3.62127 23.80379,-7.07207 13.03465,-6.65952 22.87132,-16.73259 29.11471,-29.81445 5.35551,-11.22148 5.7653,-14.95686 5.78088,-52.69515 l 0.0142,-34.38167 -36.72,0.32005 -36.72,0.32003 -7.78329,2.98468 c -19.25327,7.38309 -33.12141,21.5226 -39.8783,40.65858 -2.14391,6.07173 -2.21183,7.3467 -2.51861,47.28 l -0.3153,41.04 h 14.8881 14.8881 z" style="fill:#ffffff;stroke-width:0.96000004"/>
</svg>