<?xml version="1.0" encoding="UTF-8" standalone="no"?>
<!-- Created with Inkscape (http://www.inkscape.org/) -->
<svg xmlns:dc="http://purl.org/dc/elements/1.1/" xmlns:cc="http://creativecommons.org/ns#" xmlns:rdf="http://www.w3.org/1999/02/22-rdf-syntax-ns#" xmlns:svg="http://www.w3.org/2000/svg" xmlns="http://www.w3.org/2000/svg" xmlns:sodipodi="http://sodipodi.sourceforge.net/DTD/sodipodi-0.dtd" xmlns:inkscape="http://www.inkscape.org/namespaces/inkscape" version="1.1" id="svg160" width="421.83417" height="499.9855" viewBox="0 0 421.83417 499.9855" sodipodi:docname="bienpropio.svg" inkscape:version="0.92.2 5c3e80d, 2017-08-06">
  <metadata id="metadata166">
    <rdf:RDF>
      <cc:Work rdf:about="">
        <dc:format>image/svg+xml</dc:format>
        <dc:type rdf:resource="http://purl.org/dc/dcmitype/StillImage"/>
        <dc:title/>
      </cc:Work>
    </rdf:RDF>
  </metadata>
  <defs id="defs164"/>
  <sodipodi:namedview pagecolor="#ffffff" bordercolor="#666666" borderopacity="1" objecttolerance="10" gridtolerance="10" guidetolerance="10" inkscape:pageopacity="0" inkscape:pageshadow="2" inkscape:window-width="1280" inkscape:window-height="688" id="namedview162" showgrid="false" inkscape:zoom="0.417193" inkscape:cx="449.03453" inkscape:cy="220.52321" inkscape:window-x="0" inkscape:window-y="0" inkscape:window-maximized="1" inkscape:current-layer="svg160"/>
  <g id="g205" transform="translate(-185.16582,-80)">
    <path style="fill:#9cabd8" d="m 227.6702,559.11998 c -21.90639,-11.46805 -40.52817,-21.54937 -41.38172,-22.40293 -1.39879,-1.39879 -1.4389,-15.59654 -0.40645,-143.88449 0.63001,-78.28291 1.13928,-146.11474 1.13172,-150.7374 L 187,233.69033 l 4.01038,-3.81499 C 201.7916,219.61942 391.89647,80 395.07966,80 c 0.46507,0 21.4499,14.761422 46.63296,32.80316 25.18306,18.04174 72.11238,51.63441 104.28738,74.65037 32.175,23.01597 59.0625,42.54056 59.75,43.38797 0.98774,1.2175 1.25,33.38633 1.25,153.32658 v 151.78581 l -2.25,1.46602 c -1.2375,0.8063 -20.34645,10.08188 -42.46432,20.61238 -37.77912,17.98694 -40.41329,19.08405 -43.5,18.11737 C 487.24047,566.27052 413.24636,541.48997 412.5,540.55471 c -1.38829,-1.73966 -1.19615,-222.25856 0.19487,-223.64958 0.6813,-0.6813 12.74094,7.40326 36.98187,24.79195 19.78399,14.19161 37.1961,26.71263 38.69356,27.8245 l 2.72267,2.02158 1.05662,65.47842 c 0.58114,36.01313 1.34772,65.75982 1.70351,66.10376 0.68332,0.66055 25.11684,8.87466 26.39837,8.87466 0.41169,0 0.74574,-53.8875 0.74233,-119.75 L 520.9876,272.5 489.38639,249 C 472.00573,236.075 444.08567,215.2625 427.34182,202.75 410.59797,190.2375 396.52062,180 396.05882,180 395.3615,180 302.07611,248.08135 277,266.89126 l -7.5,5.62585 -0.25405,119.74144 C 269.03479,491.78857 269.21804,512 270.33163,512 c 1.70457,0 31.71245,-6.71075 32.20345,-7.20175 0.20157,-0.20156 -0.0475,-35.67612 -0.55353,-78.83236 -0.506,-43.15624 -0.93385,-87.95708 -0.95077,-99.55742 L 301,305.31694 338.60442,278.59155 c 20.68244,-14.69896 38.17874,-26.505 38.88069,-26.23564 1.53781,0.59012 2.20036,40.42522 3.12976,188.17297 0.52306,83.15195 0.40346,99.20932 -0.74597,100.15435 -2.33396,1.91893 -107.70426,39.32835 -110.70183,39.30226 -0.91689,-0.008 -19.59048,-9.39746 -41.49687,-20.86551 z" id="path219" inkscape:connector-curvature="0"/>
    <path style="fill:#698dc2" d="m 229.5,558.91576 c -20.9,-10.98925 -39.30708,-20.68843 -40.90463,-21.55375 l -2.90463,-1.57329 0.65117,-63.64436 c 0.35815,-35.0044 0.94809,-102.91707 1.31099,-150.91706 0.45935,-60.75772 0.99208,-87.6814 1.75345,-88.61791 C 195.50168,225.11195 392.88173,80.446409 395.65178,81.446155 396.66624,81.812289 470.27773,134.43341 572,207.50855 l 33.5,24.0657 v 152.39564 152.39564 l -41.91469,19.91513 -41.91469,19.91513 -52.98171,-17.3447 c -29.13994,-9.53959 -53.64153,-17.82718 -54.44798,-18.41687 -1.27293,-0.93079 -1.46733,-15.62727 -1.47436,-111.46293 -0.006,-76.77354 0.31422,-110.49822 1.05032,-110.74359 0.9853,-0.32843 70.51724,48.85644 74.47861,52.68401 1.66909,1.61271 1.86905,6.30602 2.84019,66.66157 0.75151,46.70677 1.37015,65.24395 2.20449,66.05716 2.14436,2.09005 26.75718,9.6722 27.84999,8.57939 0.67551,-0.67551 0.98478,-40.87066 0.92574,-120.3207 -0.0837,-112.61572 -0.18755,-119.39947 -1.85228,-120.96756 -5.63357,-5.30653 -123.50284,-92.01491 -124.71794,-91.74648 -0.80894,0.1787 -29.83765,21.16965 -64.50825,46.64654 L 268,272.14327 v 119.95975 c 0,104.7782 0.18658,120.03135 1.47428,120.52548 1.567,0.60132 32.50073,-6.20188 33.70827,-7.4134 0.39202,-0.3933 0.23152,-45.19781 -0.35665,-99.56557 -1.03898,-96.03743 -1.01614,-98.9018 0.80235,-100.65451 4.79839,-4.62482 72.85633,-51.91044 73.61806,-51.14871 1.14649,1.14649 3.25529,285.06208 2.12537,286.14829 -1.69974,1.634 -107.51814,39.03713 -110.20461,38.95351 C 268.25018,578.91956 250.4,569.90501 229.5,558.91576 Z" id="path217" inkscape:connector-curvature="0"/>
    <path style="fill:#104fad" d="M 227.12393,556.6597 186.74785,535.5 l 0.66045,-66 c 0.36324,-36.3 1.09461,-104.25 1.62525,-151 l 0.96481,-85 4.25082,-3.88255 c 5.9871,-5.46841 72.69286,-55.43378 113.75082,-85.20408 71.23733,-51.65273 86.87348,-62.609281 88.20076,-61.803951 4.87389,2.957247 206.55371,147.909751 207.53661,149.161931 1.82821,2.32907 1.8468,302.51415 0.0188,303.98262 C 602.33606,536.89483 522.34111,575 521.36624,575 520.19754,575 416.72252,540.92187 414.85272,539.92118 413.06643,538.96518 413,535.00708 413,429.52383 c 0,-66.60693 0.36492,-109.63133 0.93283,-109.98232 0.51306,-0.31709 17.5645,11.36203 37.89208,25.95359 l 36.95925,26.53012 0.59995,18.23739 c 0.32997,10.03056 0.87734,39.38739 1.21637,65.23739 0.36381,27.73935 1.01215,47.48839 1.5821,48.19178 1.53292,1.89184 28.85843,10.66721 29.91778,9.60786 0.55402,-0.55402 0.99636,-48.92153 1.10339,-120.64827 l 0.17865,-119.72352 -2.4412,-2.32734 C 516.60092,266.46267 397.25468,178 396.01254,178 c -1.04449,0 -64.9592,46.51088 -113.37055,82.5 l -16.14199,12 0.33747,120 c 0.18937,67.33754 0.72424,120.40321 1.21879,120.91878 1.08173,1.12774 33.92153,-5.98408 35.6302,-7.7161 0.91018,-0.92262 0.97741,-18.66759 0.28873,-76.20268 -0.49376,-41.25 -0.91517,-85.87948 -0.93647,-99.17662 L 303,306.14677 l 36.75,-26.09629 36.75,-26.09628 0.61869,23.7729 c 0.34028,13.07509 0.94188,77.17862 1.3369,142.45228 l 0.71821,118.67938 -2.8369,1.45448 c -2.87718,1.47514 -73.2891,26.73078 -94.29006,33.82036 -6.29924,2.12652 -12.14924,3.82577 -13,3.7761 -0.85076,-0.0497 -19.71607,-9.61216 -41.92291,-21.25 z" id="path215" inkscape:connector-curvature="0"/>
    <path style="fill:#0101fa" d="m 268.66313,577.25 c -0.74991,-1.23637 -0.92791,-9.42021 -0.79218,-36.42245 L 268,515.1551 l 3.25,-1.04572 c 1.7875,-0.57516 9.55,-2.43248 17.25,-4.1274 7.7,-1.69491 14.60887,-3.68418 15.35305,-4.42059 1.13072,-1.11891 1.21288,-17.50166 0.5,-99.70016 -0.75758,-87.35257 -0.68324,-98.52911 0.66416,-99.86123 4.28307,-4.2345 70.24863,-50.12896 70.96973,-49.37603 0.46146,0.48182 1.22623,63.87603 1.69949,140.87603 0.78129,127.11594 0.71467,140.1641 -0.72392,141.78316 -1.39167,1.56627 -50.21185,19.52684 -91.84607,33.78947 -15.24734,5.22328 -15.74265,5.34903 -16.45331,4.17737 z m 199.84826,-19.25572 c -28.04374,-9.24617 -51.78124,-17.30622 -52.75,-17.91122 C 414.09696,539.0436 414,532.95584 414,429.49153 414,369.27119 414.26076,320 414.57946,320 c 0.3187,0 7.6312,5.09576 16.25,11.3239 16.97225,12.26455 40.92822,29.40533 50.92097,36.43457 3.51889,2.4753 6.45673,5.34613 6.72251,6.56915 0.25964,1.19481 0.82195,30.65173 1.24957,65.45983 0.67066,54.59168 0.98359,63.4175 2.27749,64.23396 3.1013,1.95695 29.12802,10.14344 30.53356,9.60408 1.26104,-0.4839 1.48903,2.82946 1.62775,23.65589 0.2492,37.41588 0.22052,37.79063 -2.87993,37.62137 -0.97976,-0.0535 -24.72626,-7.6623 -52.76999,-16.90847 z M 520.5,269.56857 c -3.10131,-2.41645 -73.27046,-54.75074 -105,-78.3122 -12.13286,-9.00951 -18.6519,-13.24614 -20,-12.9977 -1.1,0.20272 -29.98632,20.92745 -64.19182,46.05496 C 297.10268,249.44113 268.39716,270 267.51813,270 c -0.87903,0 -11.81772,-4.98139 -24.30819,-11.06975 -12.49047,-6.08837 -29.34744,-14.263 -37.45994,-18.16587 -8.1125,-3.90286 -14.75,-7.42549 -14.75,-7.82807 0,-1.03922 16.89371,-14.15372 51,-39.59105 C 298.60676,151.12652 393.17001,83 395.16512,83 c 1.48501,0 2.19831,0.502273 80.26522,56.51957 29.11169,20.88924 69.57672,49.90543 89.9223,64.48043 20.34557,14.575 37.13497,26.95 37.30977,27.5 0.26977,0.84886 -77.23432,40.74709 -78.66241,40.49452 -0.275,-0.0486 -1.85,-1.14032 -3.5,-2.42595 z" id="path213" inkscape:connector-curvature="0"/>
    <path style="fill:#023381" d="m 268.66313,577.25 c -0.74991,-1.23637 -0.92791,-9.42021 -0.79218,-36.42245 L 268,515.1551 l 3.25,-1.04572 c 1.7875,-0.57516 9.55,-2.43248 17.25,-4.1274 7.7,-1.69491 14.60887,-3.68418 15.35305,-4.42059 1.13072,-1.11891 1.21288,-17.50166 0.5,-99.70016 -0.75758,-87.35257 -0.68324,-98.52911 0.66416,-99.86123 4.28307,-4.2345 70.24863,-50.12896 70.96973,-49.37603 0.46146,0.48182 1.22623,63.87603 1.69949,140.87603 0.78129,127.11594 0.71467,140.1641 -0.72392,141.78316 -1.39167,1.56627 -50.21185,19.52684 -91.84607,33.78947 -15.24734,5.22328 -15.74265,5.34903 -16.45331,4.17737 z m 199.84826,-19.25572 c -28.04374,-9.24617 -51.78124,-17.30622 -52.75,-17.91122 C 414.09696,539.0436 414,532.95584 414,429.49153 414,369.27119 414.26076,320 414.57946,320 c 0.3187,0 7.6312,5.09576 16.25,11.3239 16.97225,12.26455 40.92822,29.40533 50.92097,36.43457 3.51889,2.4753 6.45673,5.34613 6.72251,6.56915 0.25964,1.19481 0.82195,30.65173 1.24957,65.45983 0.67066,54.59168 0.98359,63.4175 2.27749,64.23396 3.1013,1.95695 29.12802,10.14344 30.53356,9.60408 1.26104,-0.4839 1.48903,2.82946 1.62775,23.65589 0.2492,37.41588 0.22052,37.79063 -2.87993,37.62137 -0.97976,-0.0535 -24.72626,-7.6623 -52.76999,-16.90847 z" id="path211" inkscape:connector-curvature="0"/>
    <path style="fill:#00327e" d="m 269,546.12132 v -30.87868 l 2.75,-1.04762 c 1.5125,-0.5762 9.22446,-2.44253 17.13768,-4.1474 7.91323,-1.70487 14.80348,-3.35675 15.31168,-3.67083 0.50821,-0.31409 1.34301,-1.67313 1.85512,-3.02008 0.77167,-2.02966 1.16775,-2.22797 2.31302,-1.15813 0.76005,0.70999 1.1959,1.77561 0.96856,2.36804 -0.22733,0.59243 0.75023,1.60729 2.17236,2.25526 4.05667,1.84834 4.82376,1.39048 2.02148,-1.20659 -2.15314,-1.99546 -2.31443,-2.484 -0.98814,-2.99294 2.18956,-0.84022 0.8451,-2.62235 -1.97833,-2.62235 -1.2752,0 -2.7966,-0.57603 -3.3809,-1.28006 -0.72239,-0.87043 -1.2785,-31.35158 -1.73777,-95.25 -0.37147,-51.68347 -0.85694,-94.27811 -1.07881,-94.65476 -0.22188,-0.37665 1.20077,-1.90839 3.16144,-3.40387 2.6935,-2.05443 3.84691,-2.43701 4.71874,-1.56518 0.63463,0.63463 1.62637,1.1389 2.20387,1.1206 1.57,-0.0497 5.92814,-3.92193 5.21583,-4.63423 -0.33962,-0.33963 -1.28176,-0.0662 -2.09362,0.60757 -0.81187,0.6738 -2.2321,1.07542 -3.15607,0.89251 -1.2422,-0.24592 -0.67932,-1.0436 2.16017,-3.0613 l 3.8401,-2.72871 2.29887,2.15968 2.29888,2.15968 2.03187,-2.18097 C 328.16357,296.98143 329.73538,296 330.53896,296 332.73598,296 332.29536,293.3105 330,292.71025 326.97799,291.91998 327.60378,290 330.88337,290 c 2.04236,0 3.03592,-0.58335 3.40638,-2 0.29628,-1.13298 1.36401,-2 2.46299,-2 2.13679,0 7.89991,-2.62896 8.73885,-3.98639 0.29224,-0.47285 1.87102,-1.15398 3.50841,-1.51361 3.5962,-0.78986 4.57507,-2.10215 2.99142,-4.01034 -0.94602,-1.13988 -0.61522,-1.92011 1.66391,-3.92459 1.56457,-1.37603 3.32873,-2.51609 3.92036,-2.53347 0.59162,-0.0174 2.13256,-1.1566 3.42431,-2.5316 2.83811,-3.02103 4,-3.16627 4,-0.5 0,2.34278 2.78814,2.71567 3.64326,0.48727 0.31927,-0.83201 -0.0324,-2.25455 -0.78138,-3.1612 -1.21857,-1.47499 -1.0725,-1.59348 1.38812,-1.12594 1.5125,0.28739 2.76001,0.24743 2.77224,-0.0888 0.0122,-0.33623 0.84186,-1.67712 1.84362,-2.97974 1.7689,-2.30017 1.83274,-0.57127 2.21567,60 C 377.05811,474.60827 377.04187,496 375.94801,496 c -0.71109,0 -0.99091,-2.74123 -0.81289,-7.96338 0.1493,-4.37985 -0.045,-8.27985 -0.43183,-8.66666 -0.38681,-0.38681 -0.65109,7.80921 -0.58729,18.21337 0.0638,10.40417 0.31515,18.01667 0.55855,16.91667 1.11878,-5.05607 1.80413,-4.45862 2.29425,2 0.68621,9.04267 0.28517,11.53469 -1.73172,10.76073 -0.98874,-0.37941 -2.41585,0.46753 -3.91075,2.32092 -1.96898,2.44115 -2.51264,2.67307 -3.32479,1.41835 -0.86304,-1.33333 -0.97432,-1.33333 -1.00154,0 -0.0272,1.33333 -0.13833,1.33333 -1,0 -0.53316,-0.825 -0.97627,-1.07649 -0.98469,-0.55887 -0.008,0.51762 -0.6,0.14152 -1.31462,-0.83579 -0.8768,-1.19908 -2.25885,-1.65617 -4.25,-1.40561 -2.86597,0.36064 -2.80713,0.43862 2.04931,2.71582 2.75,1.28948 5.87956,2.7973 6.95458,3.35072 1.60983,0.82872 2.41724,0.45201 4.57761,-2.13576 2.85313,-3.4176 4.27368,-3.19738 3.34119,0.51795 -0.35372,1.40934 -0.14609,2.35154 0.51821,2.35154 0.60963,0 1.10841,0.3876 1.10841,0.86133 0,0.47373 -1.2375,0.63327 -2.75,0.35453 -2.68352,-0.49455 -2.70708,-0.4584 -0.97477,1.49528 1.40786,1.58778 1.51133,2.20637 0.5,2.98919 -1.18412,0.91658 -29.70673,11.20181 -80.25176,28.93873 C 282.98638,573.68758 272.52388,577 271.27347,577 H 269 Z M 353,524.5 c 0,-0.98184 -0.98278,-1.5 -2.84501,-1.5 -1.57502,0 -3.65297,-0.89278 -4.65499,-2 -1.89411,-2.09297 -5.5,-2.73581 -5.5,-0.9805 0,1.02288 9.40641,5.74495 11.75,5.89857 0.6875,0.0451 1.25,-0.59307 1.25,-1.41807 z m -15.8,-6.7 c -1.73223,-1.73223 -1.47511,-2.6847 0.57968,-2.14736 2.57096,0.67232 7.22032,-1.34181 7.22032,-3.12789 0,-1.89972 -1.83468,-1.93948 -5.59636,-0.12129 -1.597,0.7719 -4.4337,1.7225 -6.30377,2.11243 -2.87749,0.59999 -3.30503,0.46112 -2.78139,-0.90346 0.68915,-1.79588 -0.96881,-2.11905 -3.30219,-0.64366 -1.14698,0.72523 -0.2392,1.503 4,3.42708 6.11052,2.77343 7.97677,3.19721 6.18371,1.40415 z m 15.46417,-0.36722 c 1.0442,-2.72114 -1.04346,-3.60087 -4.73939,-1.99714 -3.20998,1.39287 -3.3295,1.62281 -1.00811,1.93936 0.50416,0.0688 1.25416,0.4625 1.66666,0.875 1.26887,1.26886 3.44777,0.83252 4.08084,-0.81722 z M 369.5,499.00279 c 0,-10.44875 -0.26904,-18.99887 -0.59787,-19.00026 -1.36669,-0.006 -1.95523,27.2105 -0.70473,32.58922 0.69155,2.97454 1.26755,5.40837 1.27999,5.40851 0.0124,1.4e-4 0.0226,-8.54872 0.0226,-18.99747 z m -48.5,5.55623 c 0,-1.89244 -1.70391,-2.88662 -3.66051,-2.1358 -1.26466,0.48529 -1.32788,0.88584 -0.32967,2.08861 1.57542,1.89827 3.99018,1.92682 3.99018,0.0472 z m -1,-8.14235 c 0,-1.76593 -2.15276,-1.45839 -2.77083,0.39583 -0.21771,0.65312 0.31666,1.1875 1.1875,1.1875 C 319.2875,498 320,497.2875 320,496.41667 Z m 49.74413,-40.12096 c -0.1879,-4.28764 -0.34279,-1.04571 -0.34419,7.20429 -0.001,8.25 0.15234,11.75807 0.34164,7.79571 0.18931,-3.96237 0.19045,-10.71237 0.003,-15 z m 4.91815,16.45429 c -0.27741,-0.6875 -0.50439,-0.125 -0.50439,1.25 0,1.375 0.22698,1.9375 0.50439,1.25 0.27741,-0.6875 0.27741,-1.8125 0,-2.5 z m 1.06619,-85.5 c -0.21575,-2.0625 -0.39226,-0.375 -0.39226,3.75 0,4.125 0.17651,5.8125 0.39226,3.75 0.21574,-2.0625 0.21574,-5.4375 0,-7.5 z M 375,327.94098 C 375,323.01864 374.59743,320 373.94098,320 c -0.58246,0 -0.73793,-0.51953 -0.34549,-1.15451 0.44208,-0.7153 0.27432,-0.88306 -0.44098,-0.44098 -1.21421,0.75042 -1.64724,14.14788 -0.54973,17.00796 1.31734,3.43291 2.39522,0.0706 2.39522,-7.47149 z m -1.67746,-28.2136 c -0.39131,-7.30168 -0.99523,-11.42967 -1.61602,-11.046 -1.0648,0.65808 -0.32179,20.51408 0.83785,22.39042 1.2701,2.05506 1.39707,0.20408 0.77817,-11.34442 z M 336,299 c 0,-0.55 -0.45,-1 -1,-1 -0.55,0 -1,0.45 -1,1 0,0.55 0.45,1 1,1 0.55,0 1,-0.45 1,-1 z m 16,-12.5 c 0,-3.05386 -0.46296,-3.10349 -3.29181,-0.35293 -1.21451,1.18088 -1.67678,1.84854 -1.02729,1.48369 0.6495,-0.36486 1.46356,-0.20604 1.80902,0.35293 C 350.63736,289.84028 352,289.03484 352,286.5 Z M 364,271 c 0,-0.55 -0.675,-1 -1.5,-1 -0.825,0 -1.5,0.45 -1.5,1 0,0.55 0.675,1 1.5,1 0.825,0 1.5,-0.45 1.5,-1 z m 9.54694,-3.73828 c -0.57067,-1.48715 -0.75093,-1.4863 -2.24778,0.0105 -1.37291,1.37291 -1.418,1.87962 -0.28837,3.24073 1.23159,1.48397 1.41187,1.48313 2.24778,-0.0105 0.49983,-0.89316 0.6296,-2.35149 0.28837,-3.24073 z m 95.715,290.75608 C 441.09258,548.8132 417.35981,540.71358 416.52246,540.01864 415.17724,538.9022 415,526.77977 415,435.88625 V 333.0174 l 3.14831,-3.0087 c 3.49014,-3.33537 3.71083,-3.40959 5.85169,-1.96806 1.24811,0.8404 0.87027,1.55151 -2.25004,4.23468 -2.06253,1.77358 -3.75003,3.56218 -3.75,3.97468 8e-5,1.44166 3.38858,0.73407 5.43559,-1.13506 1.13545,-1.03679 3.07695,-2.19212 4.31445,-2.56739 1.81295,-0.54979 2.25,-0.29221 2.25,1.32605 0,1.1046 0.45,2.28648 1,2.6264 0.55,0.33992 1,0.14148 1,-0.44098 0,-0.58246 0.45,-1.05902 1,-1.05902 0.55,0 1,0.675 1,1.5 0,0.825 0.83026,1.5 1.84501,1.5 2.07123,0 5.15499,2.96955 5.15499,4.96407 0,1.48306 -4.59117,6.03593 -6.08671,6.03593 -0.60572,0 -0.55913,0.79323 0.12127,2.06457 0.88373,1.65126 1.39124,1.82694 2.53518,0.87755 0.78664,-0.65285 1.43026,-1.62228 1.43026,-2.15427 0,-1.5635 4.32714,-4.71847 6.52106,-4.75458 1.11158,-0.0183 5.59953,2.4259 9.97321,5.43155 5.97693,4.10742 7.95881,6.03243 7.97894,7.75 0.0225,1.91674 0.49025,2.23562 2.90128,1.97782 1.78758,-0.19115 3.67819,0.42331 5,1.62503 1.16903,1.06282 3.10753,2.43816 4.30779,3.05631 1.20025,0.61814 2.45924,1.99656 2.79776,3.06315 0.35832,1.12895 1.70246,2.06953 3.21687,2.25106 1.43075,0.17149 2.91431,0.98681 3.2968,1.81181 0.38249,0.825 1.21538,2.50639 1.85086,3.73643 1.57418,3.04696 1.45107,4.26357 -0.43143,4.26357 -0.87278,0 -2.09644,-1.35 -2.71924,-3 -0.70735,-1.87397 -1.84093,-3 -3.02013,-3 -1.31054,0 -1.70215,0.48366 -1.28076,1.58179 0.33385,0.86998 0.60699,1.76998 0.60699,2 0,0.23001 0.72607,0.41821 1.6135,0.41821 1.22396,0 1.5072,0.72428 1.17319,3 -0.43889,2.99036 0.12186,3.43805 4.07151,3.25061 1.09763,-0.0521 1.31805,2.93926 1.14896,15.59247 -0.11508,8.61131 0.12251,33.60473 0.52799,55.54095 0.67215,36.36257 0.59278,39.96487 -0.89895,40.79969 C 485.85057,497.183 485.38585,500 487.00661,500 c 0.55364,0 1.97218,1.11049 3.15231,2.46776 1.52738,1.75664 6.56839,3.94181 17.49339,7.583 L 523,515.166 v 29.31001 c 0,22.65594 -0.28617,29.41983 -1.26052,29.79372 -0.69328,0.26604 -24.30817,-7.04733 -52.47754,-16.25193 z M 425.57379,532.8806 C 425.87313,532.39627 425.45328,532 424.6408,532 422.54364,532 420,533.07884 420,533.96832 c 0,0.99589 4.87389,0.0448 5.57379,-1.08772 z m -5.21634,-3.08264 c 1.36475,-2.16722 0.38177,-3.16735 -2.28209,-2.32188 -2.52069,0.80004 -2.92239,4.83727 -0.43254,4.34724 0.90355,-0.17782 2.12513,-1.08924 2.71463,-2.02536 z M 432.5,529 c 0.33992,-0.55 -0.057,-1 -0.88197,-1 -0.825,0 -1.77811,0.45 -2.11803,1 -0.33992,0.55 0.057,1 0.88197,1 0.825,0 1.77811,-0.45 2.11803,-1 z m 10.54966,-4.52568 C 444.67235,523.6352 446,522.5726 446,522.11299 c 0,-1.44173 -4.79955,0.008 -6.59515,1.99215 -2.10891,2.33032 -0.46886,2.49644 3.64481,0.36918 z M 434.5,520.9863 c 0,-2.1435 -2.90567,-1.8339 -3.32712,0.35451 -0.25736,1.3364 0.14991,1.74367 1.48631,1.48631 1.01244,-0.19498 1.84081,-1.02335 1.84081,-1.84082 z m 14.55644,-3.2363 c 2.42234,-2.90367 2.40345,-3.9817 -0.0971,-5.54333 -2.70697,-1.69054 -4.92214,-0.38387 -2.43381,1.43564 3.17029,2.31817 0.41115,3.09824 -6.27551,1.77422 -2.48366,-0.49179 -3.25,-0.29718 -3.25,0.82531 0,1.42663 4.61386,3.44932 8.33971,3.65607 1.01184,0.0562 2.68437,-0.91041 3.71673,-2.14791 z m 8.71439,-1.5625 C 458.02266,515.43201 456.97541,515 454.8922,515 c -3.093,0 -3.16689,0.0812 -1.33333,1.46615 2.14876,1.62297 3.61032,1.52627 4.21196,-0.27865 z M 463.5,513 c -0.33992,-0.55 -1.71648,-1 -3.05902,-1 -1.34254,0 -2.44098,0.45 -2.44098,1 0,0.55 1.37656,1 3.05902,1 1.7847,0 2.80156,-0.41658 2.44098,-1 z m 10.5,-3.55941 c 2.475,-0.97837 5.29862,-2.31539 6.2747,-2.97117 1.48678,-0.99888 1.08211,-1.14299 -2.49433,-0.88825 -2.68591,0.19131 -4.83198,0.99929 -5.78707,2.17878 -0.83493,1.03109 -2.41248,2.44088 -3.50567,3.13288 -2.27894,1.44258 -0.87512,1.07274 5.51237,-1.45224 z m -7.60374,-2.03083 C 467.15525,505.43185 466.33417,504 464.44098,504 463.64844,504 463,504.825 463,505.83333 c 0,3.23885 2.3413,4.3256 3.39626,1.57643 z m 9.97366,-5.62023 c -0.33372,-0.53997 -1.88621,-0.79398 -3.44997,-0.56447 -3.06273,0.44951 -4.62956,-1.39125 -2.61051,-3.06691 C 471.51584,497.15693 472.04301,497 474.2,497 c 0.90353,0 0.91622,-0.28378 0.0514,-1.14865 -0.86487,-0.86487 -1.77898,-0.73565 -3.7,0.52305 -1.40324,0.91944 -2.55135,2.15948 -2.55135,2.75564 0,0.59617 -0.66059,0.83045 -1.46797,0.52062 -0.80739,-0.30982 -1.73395,-0.13297 -2.05902,0.39301 -0.54089,0.87517 0.8482,1.39339 2.83184,1.05647 0.44267,-0.0752 1.68884,0.48246 2.76927,1.23922 2.13619,1.49625 7.28258,1.0468 6.2958,-0.54983 z m 6.85962,-3.63375 c -0.30498,-0.79475 0.23984,-2.02583 1.21071,-2.73575 1.47734,-1.08025 1.64787,-2.14392 1.04568,-6.52237 -0.84923,-6.1746 -2.40498,-4.75184 -2.72005,2.48754 -0.14666,3.36973 -0.64215,4.61069 -1.98073,4.96073 -2.06331,0.53957 -2.426,4.61322 -0.5755,6.46372 0.9462,0.9462 1.46716,0.7285 2.39202,-0.99962 0.6503,-1.21509 0.93284,-2.85951 0.62787,-3.65425 z m 2.8856,-26.2469 c -0.0358,-3.82071 -0.52631,-7.80864 -1.09009,-8.86207 C 484.46127,461.99338 484,456.0769 484,449.89907 c 0,-6.17782 -0.30646,-10.92595 -0.68101,-10.55139 -1.19974,1.19973 -1.25248,40.02064 -0.0563,41.46551 1.82654,2.20637 2.92443,-1.22078 2.85249,-8.90431 z M 486.66228,426.75 c -0.27741,-0.6875 -0.50439,-0.125 -0.50439,1.25 0,1.375 0.22698,1.9375 0.50439,1.25 0.27741,-0.6875 0.27741,-1.8125 0,-2.5 z M 486.14064,400 c 1.4179,0 0.96853,-8.03369 -0.53338,-9.5356 -1.19032,-1.19031 -1.47901,-1.07093 -1.98634,0.82143 -0.32649,1.21779 -0.59976,3.42511 -0.60727,4.90515 -0.008,1.48004 -0.49769,2.99014 -1.08929,3.35577 -1.29965,0.80323 -0.83268,8.65625 0.57564,9.68061 0.60558,0.44048 1.35129,-1.23582 1.89064,-4.25 C 484.8805,402.23981 485.668,400 486.14064,400 Z m -12.81598,-31.65799 c 1.14824,-1.14825 -1.32158,-3.15558 -3.2592,-2.64888 -1.02354,0.26767 -2.807,-0.0196 -3.96323,-0.63842 -2.56065,-1.37041 -2.68815,-0.69643 -0.35223,1.86196 1.71177,1.87479 6.26787,2.73212 7.57466,1.42534 z M 459,359.5 c -0.68469,-0.825 -1.86479,-1.5 -2.62244,-1.5 -0.75766,0 -1.37756,0.675 -1.37756,1.5 0,0.95201 0.95805,1.5 2.62244,1.5 2.21768,0 2.43031,-0.23152 1.37756,-1.5 z m -8.33187,-8.07754 c 0.33295,-0.86765 -0.0505,-2.23339 -0.85207,-3.03497 -1.27657,-1.27657 -1.78991,-1.1959 -4.13674,0.65012 -3.61233,2.84146 -3.37129,3.96239 0.85206,3.96239 2.29367,0 3.74356,-0.55291 4.13675,-1.57754 z M 434,346.08179 c 0,-0.50502 0.27314,-1.63002 0.60699,-2.5 C 434.99423,342.57265 434.67094,342 433.71398,342 432.31337,342 431,343.97529 431,346.08179 431,346.5868 431.675,347 432.5,347 c 0.825,0 1.5,-0.4132 1.5,-0.91821 z m -17.25,-20.77112 c -0.9625,-0.25152 -1.75,-1.11516 -1.75,-1.91918 0,-1.13802 0.43071,-1.23135 1.94431,-0.4213 2.08574,1.11626 3.69992,3.10526 2.36471,2.91381 -0.44496,-0.0638 -1.59652,-0.3218 -2.55902,-0.57333 z M 323.22917,294.8125 c 0.2177,-0.65313 0.93051,-1.36573 1.58401,-1.58356 0.73075,-0.24358 0.95424,0.21359 0.58051,1.1875 -0.69752,1.81771 -2.76448,2.19592 -2.16452,0.39606 z" id="path209" inkscape:connector-curvature="0"/>
    <path style="fill:#260e0c" d="m 270,545.97856 v -31.02144 l 2.25,-0.91441 c 1.2375,-0.50293 7.875,-2.09703 14.75,-3.54245 6.875,-1.44541 13.91613,-3.06887 15.64696,-3.60769 2.89848,-0.90231 5.62262,0.2324 34.5,14.37061 38.50646,18.85255 38.27961,18.73263 37.21794,19.67353 -0.8064,0.71467 -30.32639,11.32687 -79.84143,28.70235 C 282.98638,573.68758 272.74888,577 271.77347,577 270.11362,577 270,575.01253 270,545.97856 Z m 245,26.95624 c -3.025,-0.99835 -26.3125,-8.61381 -51.75,-16.92322 C 437.8125,547.70216 417,540.54315 417,540.10265 c 0,-0.4405 4.6125,-2.96876 10.25,-5.61836 5.6375,-2.6496 17.675,-8.39342 26.75,-12.76405 C 481.46675,508.49194 489.17338,505 490.9012,505 c 0.90821,0 8.16448,2.1768 16.12504,4.83733 l 14.47376,4.83733 0.2654,29.34727 c 0.14597,16.141 -0.079,29.65795 -0.5,30.03767 -0.42097,0.37972 -3.2404,-0.12644 -6.2654,-1.1248 z" id="path207" inkscape:connector-curvature="0"/>
  </g>
</svg>